PathFileType	4	(X/Y/Z)	/home/abdul/Desktop/myosuite/custom_workspace/IK/output/S1_12_3.trc
DataRate	CameraRate	NumFrames	NumMarkers	Units	OrigDataRate	OrigDataStartFrame	OrigNumFrames
200.0	200.0	66	3	mm	200.0	2138	2443
Frame#	Time	V_Shoulder			V_Elbow			V_Wrist		
		X1	Y1	Z1	X2	Y2	Z2	X3	Y3	Z3

2138	10.685	-182.26786442042317	497.12345657691714	383.63668324104356	-287.5660371647736	337.43100366399597	63.978934797330865	-144.3199886216555	110.24159134157819	112.56517332896169
2139	10.69	-182.2547314691274	497.16718560502113	383.74949347619105	-288.11533959355	337.23859536569887	64.37675340641164	-144.93353445849593	110.01054024190691	113.04980499057089
2140	10.695	-182.24054491609095	497.2132069053753	383.8639186824	-288.6836114750647	337.049250041644	64.78377666407611	-145.57675109991075	109.77534020015521	113.5402526670284
2141	10.7	-182.22531212756715	497.2615644369867	383.97990283820855	-289.2711964871852	336.86370825996244	65.19987035708041	-146.2504301599186	109.53646255799742	114.03592771968303
2142	10.705	-182.20904357650355	497.31230075739364	384.09738586307975	-289.8784236579018	336.6827225898781	65.62488996357769	-146.95534077221794	109.29439814816973	114.53622140765815
2143	10.71	-182.19175289571976	497.36545689247583	384.2163036921375	-290.5056065482414	336.50705601030916	66.0586810166254	-147.69222758118087	109.04965651001203	115.04050626809041
2144	10.715	-182.17345692532737	497.4210722064599	384.3365883611571	-291.15304243869264	336.33748026749385	66.50107948257288	-148.46180874007163	108.80276504143741	115.548137562637
2145	10.72	-182.15417575424635	497.4791842724555	384.45816810156947	-291.8210115208178	336.17477418566716	66.95191215251532	-149.2647739214229	108.55426808890732	116.05845478687311
2146	10.725	-182.1339327556873	497.53982874386503	384.5809674452066	-292.5097760958364	336.01972193500046	67.41099704498268	-150.10178234461375	108.3047259772171	116.57078323898392
2147	10.73	-182.11275461648185	497.6030392270142	384.7049073384865	-293.21957978207365	335.87311126118124	67.87814381802187	-150.97346082579116	108.05471398111419	117.08443564394038
2148	10.735	-182.09067136015776	497.66884715535156	384.82990526570416	-293.9506467332693	335.73573168116457	68.3531541888295	-151.8804018553672	107.80482124098037	117.59871382913569
2149	10.74	-182.06771636367026	497.73728166557197	384.9558753810699	-294.70318086983946	335.6083726497691	68.8358223591002	-152.82316170840164	107.55564962500902	118.11291044725054
2150	10.745	-182.04392636771476	497.8083694760162	385.0827286491094	-295.47736512527206	335.49182170191483	69.32593544427087	-153.8022585932439	107.30781254049609	118.62631074191036
2151	10.75	-182.01934148056117	497.88213476770096	385.2103729930157	-296.2733607099178	335.38686257540814	69.82327390486498	-154.81817084386134	107.06193369704101	119.13819435149821
2152	10.755	-181.99400517536432	497.9585990683315	385.3387134505163	-297.0913063945069	335.2942733192764	70.32761197817246	-155.87133516131897	106.81864582461823	119.64783714629296
2153	10.76	-181.96796428091974	498.0377811396493	385.4676523368043	-297.9313178157822	335.21482439273143	70.83871810853867	-156.9621449098969	106.57858934963137	120.15451309391463
2154	10.765	-181.941268965849	498.1196968684603	385.5970894140534	-298.7934868066874	335.1492767599036	71.3563553745824	-158.09094847334126	106.34241103220218	120.65749614787997
2155	10.77	-181.9139727162116	498.2043591616898	385.7269220670286	-299.67788075357726	335.0983799855363	71.88028191171463	-159.2580476767326	106.11076256807058	121.15606215389948
2156	10.775	-181.88613230655713	498.29177784579997	385.8570454842782	-300.58454198294555	335.06287033685896	72.41025132838848	-160.4636962794301	105.88429915859493	121.64949076838708
2157	10.78	-181.8578077644436	498.381959570904	385.98735284438766	-301.5134871801622	335.04346889687315	72.94601311457583	-161.7080985445043	105.66367805243956	122.1370673835028
2158	10.785	-181.82906232846258	498.4749077199003	386.1177355067562	-302.46470684271014	335.0408796942822	73.48731304103609	-162.99140789000688	105.44955706262182	122.61808505291162
2159	10.79	-181.79996239982486	498.57062232294385	386.24808320635276	-303.4381647703809	335.0557878552803	74.0338935480184	-164.3137256273439	105.24259306266208	123.0918464123177
2160	10.795	-181.77057748757457	498.66909997756284	386.37828425189446	-304.4337975948532	335.08885778238096	74.58549412211896	-165.67509979191468	105.04344046563936	123.55766558872293
2161	10.8	-181.74098014751135	498.7703337747151	386.5082257268891	-305.4515143510181	335.1407313654177	75.14185166010066	-167.07552407105558	104.85274969000055	124.01487009226679
2162	10.805	-181.71124591491431	498.8743132310731	386.6377936929778	-306.49119609234776	335.21202622978694	75.70270081857153	-168.51493683418437	104.67116561600517	124.46280268442752
2163	10.81	-181.68145323117196	498.98102422780994	386.7668733950102	-307.55269555251436	335.30333402692224	76.267774348512	-169.9932202698754	104.49932603671009	124.90082321630851
2164	10.815	-181.6516833644363	499.0904489561478	386.8953494672873	-308.63583685536815	335.41521877189996	76.8368034137377	-171.51019963441013	104.33786010740931	125.32831043069635
2165	10.82	-181.62202032442812	499.20256586991644	387.02310614041016	-309.7404152752656	335.5482152329664	77.40951789248498	-173.06564261614062	104.18738679744476	125.74466372156081
2166	10.825	-181.5925507715333	499.3173496453547	387.1500274481723	-310.86619704961186	335.7028273776605	77.98564666140973	-174.65925881977472	104.04851334829522	126.14930484467516
2167	10.83	-181.56336392033907	499.4347711483735	387.2759974339456	-312.0129192453396	335.8795268800693	78.56491786139503	-176.29069937444342	103.92183374183293	126.54167957306383
2168	10.835	-181.53455143776992	499.55479740948243	387.40090035601537	-313.1802896808937	336.07875169361176	79.14705914467226	-177.95955666913954	103.80792718261083	126.92125929104145
2169	10.84	-181.50620733599166	499.6773916065661	387.52462089133013	-314.3679869051265	336.3009046935865	79.7317979028699	-179.66536421882867	103.70735659800964	127.28754252068705
2170	10.845	-181.4784278602608	499.80251305567816	387.6470443371459	-315.57566023433736	336.5463523935529	80.31886147571592	-181.4075966642205	103.62066716003432	127.64005637470555
2171	10.85	-181.45131137190552	499.93011721000425	387.76805681005703	-316.80292984850564	336.81542373943216	80.90797734023286	-183.1856699078611	103.54838483250236	127.97835792976448
2172	10.855	-181.42495822663037	500.0601556671304	387.88754544192165	-318.04938694758044	337.1084089850293	81.49887328037852	-184.99894138885662	103.49101494731435	128.30203551455705
2173	10.86	-181.3994706483471	500.19257618472574	388.00539857221025	-319.314593968494	337.4255586524743	82.09127753719989	-186.84671049817348	103.44904081344039	128.6107099070356
2174	10.865	-181.37495259873685	500.3273227047405	388.1215059363203	-320.5980848633685	337.76708258087206	82.68491893968259	-188.72821913607612	103.42292236219518	128.904035435482
2175	10.87	-181.35150964275897	500.46433538619226	388.235758849424	-321.89936543918174	338.1331490662342	83.2795270165924	-190.64265241286336	103.41309483230884	129.1817009783324
2176	10.875	-181.32924881032352	500.60355064659853	388.3480503854361	-323.2179137589568	338.52388409553953	83.87483208971977	-192.58913949365092	103.4199674982328	129.443430857956
2177	10.88	-181.3082784543532	500.7449012120919	388.4582755507151	-324.5531806043339	338.9393706775368	84.47056534905094	-194.56675458751786	103.44392244504783	129.68898562389833
2178	10.885	-181.28870810546186	500.8883161762338	388.5663314521307	-325.90458999918076	339.37964827266114	85.06645891050053	-196.57451808089513	103.4853133932678	129.91816272143944
2179	10.89	-181.27064832348296	501.0337210675238	388.6721174591592	-327.2715397936984	339.8447123241936	85.6622458569498	-198.61139781462043	103.54446457675465	130.1307970416883
2180	10.895	-181.2542105460834	501.18103792557895	388.77553535969463	-328.65340230827906	340.3345138925323	86.25766026344226	-200.6763105036234	103.62166967688114	130.32676134983106
2181	10.9	-181.2395069347027	501.3301853859391	388.8764895092881	-330.0495250361828	340.84895939419374	86.85243720749129	-202.7681232977351	103.71719081599483	130.50596658857717
2182	10.905	-181.22665021805804	501.4810787734309	388.9748869735593	-331.45923140391176	341.38791044689344	87.44631276555539	-204.8856554816384	103.8312576131527	130.66836205429843
2183	10.91	-181.21575353346051	501.63363020400476	389.07063766354844	-332.88182158798156	341.95118382179044	88.0390239968329	-207.02768031149694	103.96406630500644	130.81393544383243
2184	10.915	-181.20693026618696	501.7877486949363	389.16365446380655	-334.31657338661375	342.53855150370873	88.63030891561908	-209.19292698531507	104.11577893462794	130.94271277042174
2185	10.92	-181.20029388715534	501.9433402832655	389.2538533530539	-335.7627431447131	343.1497408598726	89.21990645355444	-211.380082743598	104.2865226109694	131.0547581477823
2186	10.925	-181.19595778915172	502.10030815232284	389.3411535172601	-337.2195667303358	343.78443491741746	89.80755641317386	-213.58779509639754	104.4763888415535	131.15017344183417
2187	10.93	-181.19403512185747	502.2585527661745	389.42547745503185	-338.68626056071014	344.44227274965544	90.39299941423891	-215.81467417234893	104.68543294088612	131.22909779018732
2188	10.935	-181.19463862592647	502.4179720117983	389.50675107522164	-340.16202267573374	345.12284997079684	90.97597683440257	-218.05929518482984	104.91367351697491	131.29170699004726
2189	10.94	-181.19788046636123	502.57846134877883	389.5849037866981	-341.6460338567506	345.8257193385452	91.55623074581338	-220.3202010099045	105.16109203822462	131.33821275579103
2190	10.945	-181.20387206543782	502.7399139662944	389.6598685802499	-343.13745878829195	346.5503914636999	92.13350384931697	-222.59590487025991	105.4276324828582	131.36886184805874
2191	10.95	-181.21272393542782	502.9022209471478	389.7315821026177	-344.6354472603639	347.2963356256207	92.70753940795286	-224.88489311889336	105.71320107288741	131.38393507680527
2192	10.955	-181.22454551136659	503.06527143857267	389.7999847226772	-346.1391354087703	348.0629806921245	93.27808118147698	-227.1856281158802	106.01766609452147	131.38374618136157
2193	10.96	-181.2394449841137	503.2289528295317	389.86502058982387	-347.6476469908756	348.84971614210485	93.84487336366107	-229.49655119113453	106.34085780675994	131.36864059115635
2194	10.965	-181.25752913395436	503.3931509342019	389.92663768463143	-349.16009469414166	349.6558931888896	94.40766052413159	-231.816085685679	106.68256843976624	131.33899407134908
2195	10.97	-181.27890316498497	503.5577501813279	389.98478786188207	-350.6755814747064	350.48082600207175	94.96618755651062	-234.14264006356342	107.04255228445601	131.2952112582136
2196	10.975	-181.303670540529	503.72263380910425	390.0394268860864	-352.19320192322175	351.32379302528176	95.52019963460995	-236.4746110862185	107.42052587456655	131.23772408969307
2197	10.98	-181.3319328198243	503.8876840652349	390.0905144596352	-353.7120436551198	352.18403838709787	96.06944217840723	-238.81038704070252	107.81616826229234	131.16699013710772
2198	10.985	-181.36378949622485	504.0527824118	390.1380142437435	-355.231188722443	353.0607734020307	96.61366083149836	-241.1483510129974	108.22912138838079	131.08349084454193
2199	10.99	-181.39933783715534	504.21780973454753	390.1818938723649	-356.7497150443421	353.95317815825933	97.15260145167423	-243.48688419723823	108.65899054738139	130.98772968295694
2200	10.995	-181.438672726058	504.3826465562125	390.22212495927266	-358.26669785332473	354.8604031885475	97.68601011621163	-245.82436923151903	109.10534494852763	130.88023022656634
2201	11.0	-181.48188650656698	504.5471732534541	390.2586830985186	-359.7812111543221	355.78157122051994	98.21363314339813	-248.1591935507081	109.56771837250761	130.7615341594737
2202	11.005	-181.52906882914593	504.7112702769902	390.2915478584937	-361.2923291936295	356.71577900224884	98.73521713172832	-250.48975274653222	110.04560992414385	130.63219922099583
2203	11.01	-181.58030650042056	504.87481837449445	390.3207027698293	-362.7991279347732	357.6620991988682	99.25050901811653	-252.81445392504983	110.53848488075647	130.49279709848088
